<svg xmlns="http://www.w3.org/2000/svg" xmlns:xlink="http://www.w3.org/1999/xlink" width="60" height="60" viewBox="0 0 60 60">
    <defs>
        <filter id="a" width="112.7%" height="146.7%" x="-6.4%" y="-16.7%" filterUnits="objectBoundingBox">
            <feOffset dy="4" in="SourceAlpha" result="shadowOffsetOuter1"/>
            <feGaussianBlur in="shadowOffsetOuter1" result="shadowBlurOuter1" stdDeviation="4"/>
            <feColorMatrix in="shadowBlurOuter1" result="shadowMatrixOuter1" values="0 0 0 0 0.105882353 0 0 0 0 0.51372549 0 0 0 0 0.890196078 0 0 0 0.15 0"/>
            <feMerge>
                <feMergeNode in="shadowMatrixOuter1"/>
                <feMergeNode in="SourceGraphic"/>
            </feMerge>
        </filter>
        <circle id="b" cx="30" cy="30" r="30"/>
    </defs>
    <g fill="none" fill-rule="evenodd" filter="url(#a)">
        <mask id="c" fill="#fff">
            <use xlink:href="#b"/>
        </mask>
        <use fill="#FFE812" xlink:href="#b"/>
        <g fill-rule="nonzero" mask="url(#c)">
            <path fill="#3B1E1E" d="M29.5 18C20.94 18 14 23.547 14 30.39c0 4.423 2.901 8.304 7.265 10.496-.237.83-1.525 5.34-1.577 5.694 0 0-.03.267.14.368.17.102.37.023.37.023.487-.07 5.655-3.749 6.549-4.388.893.129 1.813.195 2.753.195 8.56 0 15.5-5.547 15.5-12.389S38.06 18 29.5 18z"/>
            <path fill="#FFE812" d="M21.153 34c-.491 0-.89-.339-.89-.755v-4.697h-1.39c-.481 0-.873-.347-.873-.774 0-.427.392-.774.874-.774h4.558c.481 0 .873.347.873.774 0 .427-.392.774-.873.774h-1.39v4.697c0 .416-.398.755-.89.755zm7.805-.01c-.371 0-.655-.134-.74-.35l-.441-1.024h-2.715l-.44 1.025c-.086.215-.37.349-.741.349-.195 0-.388-.037-.566-.11-.245-.1-.481-.376-.211-1.122l2.13-4.978c.15-.378.605-.768 1.185-.78.581.012 1.037.402 1.187.781l2.128 4.976c.271.747.035 1.023-.21 1.124-.178.072-.37.109-.566.109zm-1.65-2.775l-.889-2.243-.889 2.243h1.778zm3.859 2.67c-.47 0-.853-.325-.853-.725v-5.37c0-.435.407-.79.908-.79.502 0 .91.355.91.79v4.645h1.89c.471 0 .854.325.854.725 0 .4-.383.725-.853.725h-2.856zm4.945.105c-.49 0-.89-.355-.89-.79v-5.41c0-.435.4-.79.89-.79.491 0 .89.355.89.79v1.7l2.484-2.206a.74.74 0 0 1 .494-.176c.222 0 .445.085.612.234a.745.745 0 0 1 .262.5.578.578 0 0 1-.196.482l-2.029 1.802 2.191 2.578a.72.72 0 0 1 .171.585.773.773 0 0 1-.345.522.956.956 0 0 1-.536.16.925.925 0 0 1-.71-.315L37.311 31.2l-.31.275v1.725c0 .436-.398.79-.89.79z"/>
        </g>
    </g>
</svg>
